<?xml version="1.0" standalone="no"?>
<!DOCTYPE svg PUBLIC "-//W3C//DTD SVG 20010904//EN"
 "http://www.w3.org/TR/2001/REC-SVG-20010904/DTD/svg10.dtd">
<svg version="1.0" xmlns="http://www.w3.org/2000/svg"
 width="139.000000pt" height="139.000000pt" viewBox="0 0 139.000000 139.000000"
 preserveAspectRatio="xMidYMid meet">
<metadata>
Created by potrace 1.14, written by Peter Selinger 2001-2017
</metadata>
<g transform="translate(0.000000,139.000000) scale(0.100000,-0.100000)"
fill="#000000" stroke="none">
<path d="M144 1356 c-61 -28 -117 -92 -133 -149 -9 -30 -11 -180 -9 -527 3
-475 3 -486 25 -525 25 -47 64 -85 113 -111 33 -18 67 -19 555 -19 518 0 520
0 561 22 53 28 107 91 122 142 9 27 12 182 12 517 l0 479 -24 51 c-27 59 -90
116 -145 132 -27 9 -186 12 -532 12 l-494 0 -51 -24z m825 -233 c20 -17 22
-26 19 -118 l-3 -100 -76 3 c-90 4 -124 -9 -166 -65 l-28 -36 -3 -261 c-1
-144 -4 -271 -7 -284 -5 -22 -8 -23 -123 -20 l-117 3 -3 438 -2 438 117 -3
118 -3 5 -65 5 -65 14 34 c20 47 59 91 96 107 45 20 128 18 154 -3z"/>
</g>
</svg>
