<?xml version="1.0" standalone="no"?>
<!DOCTYPE svg PUBLIC "-//W3C//DTD SVG 20010904//EN"
 "http://www.w3.org/TR/2001/REC-SVG-20010904/DTD/svg10.dtd">
<svg version="1.0" xmlns="http://www.w3.org/2000/svg"
 width="139.000000pt" height="139.000000pt" viewBox="0 0 139.000000 139.000000"
 preserveAspectRatio="xMidYMid meet">
<metadata>
Created by potrace 1.14, written by Peter Selinger 2001-2017
</metadata>
<g transform="translate(0.000000,139.000000) scale(0.100000,-0.100000)"
fill="#000000" stroke="none">
<path d="M174 1371 c-40 -12 -109 -62 -131 -95 -43 -66 -44 -87 -41 -601 l3
-490 25 -40 c34 -55 77 -92 129 -110 38 -13 119 -15 532 -15 546 0 559 1 624
69 73 74 70 49 70 611 l0 505 -23 43 c-29 55 -53 78 -110 107 l-47 24 -505 0
c-278 -1 -515 -4 -526 -8z"/>
</g>
</svg>
